# xmcd CD database file
#
# Track frame offsets:
#	150
#	16347
#	32599
#	51567
#	66299
#	83457
#	96527
#	111667
#	125278
#	147736
#	166792
#	184541
#	203071
#	214130
#	233280
#	246120
#	260591
#	275153
#	290789
#	304742
#	321154
#
# Disc length: 4459 seconds
#
# Revision: 0
# Processed by: cddbd v1.5.2PL0 Copyright (c) Steve Scherf et al.
# Submitted via: ACXtractor (MTCDDB.DLL V2003.07.15)
#
DISCID=3e116915
DTITLE=Isla Grant - The Best of
DYEAR=2004
DGENRE=Country
TTITLE0=A Dream Come True
TTITLE1=Twinkle Twinkle Little Star
TTITLE2=Mother
TTITLE3=Will You Walk with Me
TTITLE4=The Beauty of my Home
TTITLE5=Galway Bay
TTITLE6=A Single Yellow Rose
TTITLE7=Mothers Chair
TTITLE8=Sweet Baby Mine
TTITLE9=Cottage in the Country
TTITLE10=Partners in Rhyme
TTITLE11=Only Yesterday
TTITLE12=Listen to the Children
TTITLE13=The Old Accordian Man
TTITLE14=Love me Tonight
TTITLE15=Don't Know Why
TTITLE16=Rachel Ann
TTITLE17=Your my Best Friend
TTITLE18=An Accordian Started to Play
TTITLE19=Spending Time with Friends
TTITLE20=We'll Meet Again
EXTD=ID3G:   2 YEAR: 2004
EXTT0=
EXTT1=
EXTT2=
EXTT3=
EXTT4=
EXTT5=
EXTT6=
EXTT7=
EXTT8=
EXTT9=
EXTT10=
EXTT11=
EXTT12=
EXTT13=
EXTT14=
EXTT15=
EXTT16=
EXTT17=
EXTT18=
EXTT19=
EXTT20=
PLAYORDER=
